<svg id="_1" xmlns="http://www.w3.org/2000/svg" viewBox="0 0 1000 180"><style>.st0{display:none}.st1{display:inline}.st2{fill:#1e2225}.st3,.st4{display:inline}.st3{fill:none}.st4{enable-background:new}.st5{fill:#fff}.st6{fill:#282c47}.st7{fill:none}.st8{enable-background:new}</style><g id="Capa_1" class="st0"><g class="st1"><circle class="st2" cx="127.5" cy="90.5" r="77.5"/></g><path class="st3" d="M100.2 51.4h56.4v78.5h-56.4z"/><g class="st4"><path class="st5" d="M105.9 128.8V51.4h20.2c2.9 0 5.5.1 7.7.4s4.5.9 6.7 1.8 4.1 2 5.5 3.5c1.4 1.4 2.6 3.4 3.5 5.9.8 2.3 1.2 5 1.2 8v.7c-.1 9-3.9 14.2-11.3 15.5 4.4.6 7.8 2.5 10.2 5.6s3.5 7.5 3.6 13v.5c0 7.6-2 13.2-5.9 16.8-4 3.7-9.9 5.6-17.5 5.6h-23.9v.1zM123 82.3h3.3c3.7 0 6.2-.8 7.5-2.5 1.3-1.6 2-4.3 2-7.8 0-6.1-3.3-9.1-10-9.1H123v19.4zm0 34.5h3.6c3.7 0 6.3-.9 7.8-2.7s2.2-4.7 2.2-8.5c0-4.4-.8-7.4-2.3-9.2s-4.2-2.7-8-2.7H123v23.1z"/></g><path class="st3" d="M240.2 51.4H946v78.5H240.2z"/><g class="st4"><path class="st2" d="M253.1 128.8V64h-11.9V51.4H282V64h-11.8v64.7h-17.1v.1zM287.8 128.8V51.4h15.6v27.1c3.9-3.9 8.4-5.9 13.5-5.9 3.3 0 5.8 1.2 7.5 3.6s2.6 5.5 2.6 9.2v43.4h-15.6v-41c0-1.4-.2-2.4-.7-3.1-.4-.7-1.2-1-2.4-1-1.4 0-3 .7-4.9 2v43.1h-15.6zM354.5 129.8c-6.1 0-10.8-1.6-14.1-4.9-3.3-3.3-5-7.9-5-13.8V91.2c0-5.9 1.7-10.5 5-13.8s8.1-4.9 14.1-4.9c6.1 0 10.7 1.6 13.8 4.7 3.1 3.2 4.6 7.8 4.6 13.9V102h-22.1v9.7c0 2.2.3 3.9.8 5.1.6 1.1 1.5 1.7 2.8 1.7 2.6 0 3.9-1.8 3.9-5.4v-3.7h14.5v3.2c0 5.5-1.6 9.7-4.8 12.6-3.2 3.1-7.7 4.6-13.5 4.6zm-3.7-35h7.6v-5.5c0-2.1-.3-3.5-1-4.4s-1.7-1.3-2.9-1.3-2.1.5-2.7 1.5-.9 2.7-.9 5.1v4.6h-.1zM381.3 128.8V73.5h15.3V78c3.7-3.7 8.1-5.5 13.2-5.5 2.2 0 4.1.6 5.7 1.7s2.9 2.7 3.7 4.9c3.9-4.4 8.6-6.5 14.1-6.5 3.2 0 5.8 1.2 7.7 3.5 1.9 2.4 2.9 5.6 2.9 9.8v42.9h-15.3V87.4c0-1.5-.3-2.6-.8-3.3-.5-.7-1.4-1-2.5-.9-1.7.1-3.4.7-5.1 2v43.6H405V87.4c0-1.5-.3-2.6-.8-3.3-.5-.7-1.4-1-2.5-1-1.6.1-3.3.8-5.2 2.1v43.5h-15.2v.1zM471.3 129.8c-6.1 0-10.8-1.6-14.1-4.9-3.3-3.3-5-7.9-5-13.8V91.2c0-5.9 1.7-10.5 5-13.8s8.1-4.9 14.1-4.9c6.1 0 10.7 1.6 13.8 4.7 3.1 3.2 4.6 7.8 4.6 13.9V102h-22.1v9.7c0 2.2.3 3.9.8 5.1.6 1.1 1.5 1.7 2.8 1.7 2.6 0 3.9-1.8 3.9-5.4v-3.7h14.5v3.2c0 5.5-1.6 9.7-4.8 12.6-3.1 3.1-7.7 4.6-13.5 4.6zm-3.7-35h7.6v-5.5c0-2.1-.3-3.5-1-4.4s-1.7-1.3-2.9-1.3-2.1.5-2.7 1.5-.9 2.7-.9 5.1v4.6h-.1zM514.4 129.8c-4.7 0-8.6-1.1-11.7-3.3s-5.6-5.7-7.5-10.6l10.8-4.7c1.1 2.6 2.3 4.6 3.7 6.1 1.3 1.3 2.6 2 4 2h.5c1-.1 1.8-.4 2.4-1.1s1-1.6.9-2.6c0-.5-.2-1.1-.6-1.7-.4-.6-1-1.4-2-2.3s-1.7-1.6-2.1-1.9c-.4-.3-1.3-1.1-2.7-2.3l-4.3-3.7c-6.3-5.3-9.4-10.5-9.4-15.5 0-3 .8-5.7 2.4-8.1s3.6-4.2 6.2-5.4c2.6-1.3 5.4-1.9 8.4-1.9 4.5 0 8.3 1.2 11.3 3.7s5.2 6 6.4 10.5L521 91.7c-.6-2.1-1.5-3.9-2.7-5.5s-2.5-2.4-4-2.5h-.1c-1.1 0-2 .3-2.6.9-.7.6-1 1.4-1.1 2.3-.1 1.5 2.1 4.1 6.6 7.9.4.3.7.6.8.7l4.2 3.7c1.6 1.4 2.8 2.5 3.6 3.3s1.8 1.9 2.9 3.3c1.2 1.4 2 2.8 2.5 4.3s.8 3 .8 4.7c0 3.1-.8 5.9-2.5 8.2-1.7 2.3-3.8 4.1-6.5 5.2-2.7 1.1-5.4 1.6-8.5 1.6zM563.9 128.8V51.4h20.2c2.9 0 5.5.1 7.7.4s4.5.9 6.7 1.8 4.1 2 5.5 3.5c1.4 1.4 2.6 3.4 3.5 5.9.8 2.3 1.2 5 1.2 8v.7c-.1 9-3.9 14.2-11.3 15.5 4.4.6 7.8 2.5 10.2 5.6s3.5 7.5 3.6 13v.5c0 7.6-2 13.2-5.9 16.8-4 3.7-9.9 5.6-17.5 5.6h-23.9v.1zM581 82.3h3.3c3.7 0 6.2-.8 7.5-2.5 1.3-1.6 2-4.3 2-7.8 0-6.1-3.3-9.1-10-9.1H581v19.4zm0 34.5h3.6c3.7 0 6.3-.9 7.8-2.7s2.2-4.7 2.2-8.5c0-4.4-.8-7.4-2.3-9.2s-4.2-2.7-8-2.7H581v23.1zM651.6 125.1c-3.4 3.1-8.2 4.7-14.2 4.7s-10.8-1.6-14.1-4.7-5.1-7.6-5.1-13.5V90.7c0-5.9 1.7-10.4 5.1-13.5s8.1-4.6 14.1-4.6 10.8 1.6 14.2 4.7 5.2 7.6 5.2 13.5v20.9c0 5.8-1.7 10.3-5.2 13.4zm-14.2-5.8c1.5 0 2.5-.6 3.1-1.7s.9-2.8.9-5v-23c0-2.2-.3-3.9-.9-5-.6-1.1-1.6-1.7-3.1-1.7-1.4 0-2.4.6-3 1.7s-.9 2.8-.9 5v23c0 2.1.3 3.8.9 4.9.6 1.2 1.6 1.8 3 1.8zM697.8 125.1c-3.4 3.1-8.2 4.7-14.2 4.7s-10.8-1.6-14.1-4.7c-3.4-3.1-5.1-7.6-5.1-13.5V90.7c0-5.9 1.7-10.4 5.1-13.5 3.4-3.1 8.1-4.6 14.1-4.6s10.8 1.6 14.2 4.7 5.2 7.6 5.2 13.5v20.9c0 5.8-1.8 10.3-5.2 13.4zm-14.2-5.8c1.5 0 2.5-.6 3.1-1.7s.9-2.8.9-5v-23c0-2.2-.3-3.9-.9-5-.6-1.1-1.6-1.7-3.1-1.7-1.4 0-2.4.6-3 1.7s-.9 2.8-.9 5v23c0 2.1.3 3.8.9 4.9.5 1.2 1.6 1.8 3 1.8zM727.3 129.4c-1.7-.1-3.3-.3-4.6-.7s-2.6-1-3.5-1.6c-1-.7-1.8-1.5-2.5-2.5s-1.3-2-1.7-3.1-.8-2.3-1-3.7c-.2-1.4-.4-2.7-.5-4s-.1-2.7-.1-4.4V83.7h-5.3V73.5h5.3V56.8h15.7v16.8h7.9v10.2h-7.9v28.6c0 2.9 1.7 4.4 5 4.5h1.4c.5 0 .9-.1 1.3-.1.3 0 .7-.1 1-.2s.5-.1.5-.1v12.3c-3.3.6-6.4.8-9.2.8-.8-.1-1.3-.1-1.8-.2zM761.6 129.8c-4.7 0-8.6-1.1-11.7-3.3s-5.6-5.7-7.5-10.6l10.8-4.7c1.1 2.6 2.3 4.6 3.7 6.1 1.3 1.3 2.6 2 4 2h.5c1-.1 1.8-.4 2.4-1.1s1-1.6.9-2.6c0-.5-.2-1.1-.6-1.7-.4-.6-1-1.4-2-2.3s-1.7-1.6-2.1-1.9c-.4-.3-1.3-1.1-2.7-2.3l-4.3-3.7c-6.3-5.3-9.4-10.5-9.4-15.5 0-3 .8-5.7 2.4-8.1 1.6-2.4 3.6-4.2 6.2-5.4s5.4-1.9 8.4-1.9c4.5 0 8.3 1.2 11.3 3.7s5.2 6 6.4 10.5l-10.1 4.7c-.6-2.1-1.5-3.9-2.7-5.5s-2.5-2.4-4-2.5h-.1c-1.1 0-2 .3-2.6.9-.7.6-1 1.4-1.1 2.3-.1 1.5 2.1 4.1 6.6 7.9.4.3.7.6.8.7l4.2 3.7c1.6 1.4 2.8 2.5 3.6 3.3s1.8 1.9 2.9 3.3c1.2 1.4 2 2.8 2.5 4.3s.8 3 .8 4.7c0 3.1-.8 5.9-2.5 8.2-1.7 2.3-3.8 4.1-6.5 5.2-2.5 1-5.4 1.6-8.5 1.6zM801.4 129.4c-1.7-.1-3.3-.3-4.6-.7-1.4-.4-2.6-1-3.5-1.6-1-.7-1.8-1.5-2.5-2.5s-1.3-2-1.7-3.1-.8-2.3-1-3.7-.4-2.7-.5-4-.1-2.7-.1-4.4V83.7h-5.3V73.5h5.3V56.8h15.7v16.8h7.9v10.2h-7.9v28.6c0 2.9 1.7 4.4 5 4.5h1.4c.5 0 .9-.1 1.3-.1.3 0 .7-.1 1-.2s.5-.1.5-.1v12.3c-3.3.6-6.4.8-9.2.8-.7-.1-1.2-.1-1.8-.2zM819.7 128.8V73.5h15.6v9.2c3.4-6.6 7.1-9.9 11.1-9.9.6 0 1.3.1 2.2.4V87c-.9-.2-1.7-.3-2.6-.3-4.3.2-7.8 2.4-10.7 6.7v35.4h-15.6zM866.1 129.8c-3.9-.1-7-1.5-9.4-4.2-2.3-2.7-3.5-5.8-3.5-9.3 0-1.8.2-3.5.7-5.1s1-2.9 1.6-4.1 1.5-2.3 2.7-3.4 2.2-2 3.1-2.6c.9-.7 2.2-1.4 3.7-2.1 1.5-.8 2.8-1.3 3.7-1.7.9-.4 2.2-.9 3.8-1.5s2.7-1 3.4-1.3V89c0-1.6-.2-2.8-.7-3.6s-1.3-1.3-2.6-1.3c-2.1 0-3.2 1.5-3.4 4.4l-.4 4.1-14.4-.6v-.9-.9c.5-6 2.3-10.5 5.6-13.3 3.3-2.9 8-4.3 14.1-4.3 5.4 0 9.6 1.5 12.4 4.5 2.8 3 4.3 7 4.3 12.1v25.7c0 3.5.3 8.2 1 13.9H878c-.8-4.5-1.2-7.1-1.3-7.8-.7 2.5-2 4.6-3.8 6.3-1.8 1.6-4.1 2.5-6.8 2.5zm5.6-10.8c.7 0 1.5-.3 2.3-.8s1.4-1.1 1.9-1.8v-15.1c-2.5 1.2-4.5 3-6.1 5.3s-2.4 4.5-2.4 6.6c0 1.8.4 3.2 1.2 4.3.8 1 1.9 1.5 3.1 1.5zM900.2 147V73.5h15.6v4.1c3.8-3.3 7.6-5 11.5-5h.5c4 .1 6.9 1.7 8.9 4.8 1.9 3 2.9 6.9 2.9 11.6v23.6c0 5.3-1 9.5-3.2 12.6-2.1 3.1-5.1 4.7-9 4.7s-7.7-1.7-11.7-5.1V147h-15.5zm19.8-27.4s.1 0 0 0c1.4 0 2.4-.6 3-1.7.6-1.2.9-2.7 1-4.5V87.7c0-1.7-.3-3.1-1-4.2-.6-1-1.5-1.5-2.7-1.5h-.4c-1.2.1-2.5.7-4.1 1.8v34.3c1.5 1 2.9 1.5 4.2 1.5z"/></g></g><g id="Capa_2" class="st0"><g class="st1"><circle class="st2" cx="128.5" cy="90" r="77.5"/></g><path class="st3" d="M101.2 50.9h56.4v78.5h-56.4z"/><g class="st4"><path class="st5" d="M106.9 128.3V50.9h20.2c2.9 0 5.5.1 7.7.4s4.5.9 6.7 1.8 4.1 2 5.5 3.5c1.4 1.4 2.6 3.4 3.5 5.9.8 2.3 1.2 5 1.2 8v.7c-.1 9-3.9 14.2-11.3 15.5 4.4.6 7.8 2.5 10.2 5.6s3.5 7.5 3.6 13v.5c0 7.6-2 13.2-5.9 16.8-4 3.7-9.9 5.6-17.5 5.6h-23.9v.1zM124 81.8h3.3c3.7 0 6.2-.8 7.5-2.5 1.3-1.6 2-4.3 2-7.8 0-6.1-3.3-9.1-10-9.1H124v19.4zm0 34.5h3.6c3.7 0 6.3-.9 7.8-2.7s2.2-4.7 2.2-8.5c0-4.4-.8-7.4-2.3-9.2s-4.2-2.7-8-2.7H124v23.1z"/></g><path class="st3" d="M241.2 50.9H947v78.5H241.2z"/><g class="st4"><path class="st2" d="M254.1 128.3V63.5h-11.9V50.9H283v12.6h-11.8v64.7h-17.1v.1zM288.8 128.3V50.9h15.6V78c3.9-3.9 8.4-5.9 13.5-5.9 3.3 0 5.8 1.2 7.5 3.6s2.6 5.5 2.6 9.2v43.4h-15.6v-41c0-1.4-.2-2.4-.7-3.1-.4-.7-1.2-1-2.4-1-1.4 0-3 .7-4.9 2v43.1h-15.6zM355.5 129.3c-6.1 0-10.8-1.6-14.1-4.9-3.3-3.3-5-7.9-5-13.8V90.7c0-5.9 1.7-10.5 5-13.8s8.1-4.9 14.1-4.9c6.1 0 10.7 1.6 13.8 4.7 3.1 3.2 4.6 7.8 4.6 13.9v10.9h-22.1v9.7c0 2.2.3 3.9.8 5.1.6 1.1 1.5 1.7 2.8 1.7 2.6 0 3.9-1.8 3.9-5.4V109h14.5v3.2c0 5.5-1.6 9.7-4.8 12.6-3.2 3-7.7 4.5-13.5 4.5zm-3.7-35h7.6v-5.5c0-2.1-.3-3.5-1-4.4s-1.7-1.3-2.9-1.3-2.1.5-2.7 1.5-.9 2.7-.9 5.1v4.6h-.1zM382.3 128.3V73h15.3v4.5c3.7-3.7 8.1-5.5 13.2-5.5 2.2 0 4.1.6 5.7 1.7s2.9 2.7 3.7 4.9c3.9-4.4 8.6-6.5 14.1-6.5 3.2 0 5.8 1.2 7.7 3.5 1.9 2.4 2.9 5.6 2.9 9.8v42.9h-15.3V86.9c0-1.5-.3-2.6-.8-3.3-.5-.7-1.4-1-2.5-.9-1.7.1-3.4.7-5.1 2v43.6H406V86.9c0-1.5-.3-2.6-.8-3.3-.5-.7-1.4-1-2.5-1-1.6.1-3.3.8-5.2 2.1v43.5h-15.2v.1zM472.3 129.3c-6.1 0-10.8-1.6-14.1-4.9-3.3-3.3-5-7.9-5-13.8V90.7c0-5.9 1.7-10.5 5-13.8s8.1-4.9 14.1-4.9c6.1 0 10.7 1.6 13.8 4.7 3.1 3.2 4.6 7.8 4.6 13.9v10.9h-22.1v9.7c0 2.2.3 3.9.8 5.1.6 1.1 1.5 1.7 2.8 1.7 2.6 0 3.9-1.8 3.9-5.4V109h14.5v3.2c0 5.5-1.6 9.7-4.8 12.6-3.1 3-7.7 4.5-13.5 4.5zm-3.7-35h7.6v-5.5c0-2.1-.3-3.5-1-4.4s-1.7-1.3-2.9-1.3-2.1.5-2.7 1.5-.9 2.7-.9 5.1v4.6h-.1zM515.4 129.3c-4.7 0-8.6-1.1-11.7-3.3s-5.6-5.7-7.5-10.6l10.8-4.7c1.1 2.6 2.3 4.6 3.7 6.1 1.3 1.3 2.6 2 4 2h.5c1-.1 1.8-.4 2.4-1.1s1-1.6.9-2.6c0-.5-.2-1.1-.6-1.7-.4-.6-1-1.4-2-2.3s-1.7-1.6-2.1-1.9c-.4-.3-1.3-1.1-2.7-2.3l-4.3-3.7c-6.3-5.3-9.4-10.5-9.4-15.5 0-3 .8-5.7 2.4-8.1s3.6-4.2 6.2-5.4c2.6-1.3 5.4-1.9 8.4-1.9 4.5 0 8.3 1.2 11.3 3.7s5.2 6 6.4 10.5l-10 4.5c-.6-2.1-1.5-3.9-2.7-5.5s-2.5-2.4-4-2.5h-.1c-1.1 0-2 .3-2.6.9-.7.6-1 1.4-1.1 2.3-.1 1.5 2.1 4.1 6.6 7.9.4.3.7.6.8.7l4.2 3.7c1.6 1.4 2.8 2.5 3.6 3.3s1.8 1.9 2.9 3.3c1.2 1.4 2 2.8 2.5 4.3s.8 3 .8 4.7c0 3.1-.8 5.9-2.5 8.2-1.7 2.3-3.8 4.1-6.5 5.2-2.7 1.1-5.5 1.8-8.6 1.8zM564.9 128.3V50.9h20.2c2.9 0 5.5.1 7.7.4s4.5.9 6.7 1.8 4.1 2 5.5 3.5c1.4 1.4 2.6 3.4 3.5 5.9.8 2.3 1.2 5 1.2 8v.7c-.1 9-3.9 14.2-11.3 15.5 4.4.6 7.8 2.5 10.2 5.6s3.5 7.5 3.6 13v.5c0 7.6-2 13.2-5.9 16.8-4 3.7-9.9 5.6-17.5 5.6h-23.9v.1zM582 81.8h3.3c3.7 0 6.2-.8 7.5-2.5 1.3-1.6 2-4.3 2-7.8 0-6.1-3.3-9.1-10-9.1H582v19.4zm0 34.5h3.6c3.7 0 6.3-.9 7.8-2.7s2.2-4.7 2.2-8.5c0-4.4-.8-7.4-2.3-9.2s-4.2-2.7-8-2.7H582v23.1zM652.6 124.6c-3.4 3.1-8.2 4.7-14.2 4.7s-10.8-1.6-14.1-4.7-5.1-7.6-5.1-13.5V90.2c0-5.9 1.7-10.4 5.1-13.5s8.1-4.6 14.1-4.6 10.8 1.6 14.2 4.7 5.2 7.6 5.2 13.5v20.9c0 5.8-1.7 10.3-5.2 13.4zm-14.2-5.8c1.5 0 2.5-.6 3.1-1.7s.9-2.8.9-5v-23c0-2.2-.3-3.9-.9-5-.6-1.1-1.6-1.7-3.1-1.7-1.4 0-2.4.6-3 1.7s-.9 2.8-.9 5v23c0 2.1.3 3.8.9 4.9.6 1.2 1.6 1.8 3 1.8zM698.8 124.6c-3.4 3.1-8.2 4.7-14.2 4.7s-10.8-1.6-14.1-4.7c-3.4-3.1-5.1-7.6-5.1-13.5V90.2c0-5.9 1.7-10.4 5.1-13.5 3.4-3.1 8.1-4.6 14.1-4.6s10.8 1.6 14.2 4.7 5.2 7.6 5.2 13.5v20.9c0 5.8-1.8 10.3-5.2 13.4zm-14.2-5.8c1.5 0 2.5-.6 3.1-1.7s.9-2.8.9-5v-23c0-2.2-.3-3.9-.9-5-.6-1.1-1.6-1.7-3.1-1.7-1.4 0-2.4.6-3 1.7s-.9 2.8-.9 5v23c0 2.1.3 3.8.9 4.9.5 1.2 1.6 1.8 3 1.8zM728.3 128.9c-1.7-.1-3.3-.3-4.6-.7s-2.6-1-3.5-1.6c-1-.7-1.8-1.5-2.5-2.5s-1.3-2-1.7-3.1-.8-2.3-1-3.7c-.2-1.4-.4-2.7-.5-4s-.1-2.7-.1-4.4V83.2h-5.3V73h5.3V56.3h15.7V73h7.9v10.2h-7.9v28.6c0 2.9 1.7 4.4 5 4.5h1.4c.5 0 .9-.1 1.3-.1.3 0 .7-.1 1-.2s.5-.1.5-.1v12.3c-3.3.6-6.4.8-9.2.8-.8 0-1.3 0-1.8-.1zM762.6 129.3c-4.7 0-8.6-1.1-11.7-3.3s-5.6-5.7-7.5-10.6l10.8-4.7c1.1 2.6 2.3 4.6 3.7 6.1 1.3 1.3 2.6 2 4 2h.5c1-.1 1.8-.4 2.4-1.1s1-1.6.9-2.6c0-.5-.2-1.1-.6-1.7-.4-.6-1-1.4-2-2.3s-1.7-1.6-2.1-1.9c-.4-.3-1.3-1.1-2.7-2.3L754 103c-6.3-5.3-9.4-10.5-9.4-15.5 0-3 .8-5.7 2.4-8.1 1.6-2.4 3.6-4.2 6.2-5.4s5.4-1.9 8.4-1.9c4.5 0 8.3 1.2 11.3 3.7s5.2 6 6.4 10.5l-10 4.7c-.6-2.1-1.5-3.9-2.7-5.5s-2.5-2.4-4-2.5h-.1c-1.1 0-2 .3-2.6.9-.7.6-1 1.4-1.1 2.3-.1 1.5 2.1 4.1 6.6 7.9.4.3.7.6.8.7l4.2 3.7c1.6 1.4 2.8 2.5 3.6 3.3s1.8 1.9 2.9 3.3c1.2 1.4 2 2.8 2.5 4.3s.8 3 .8 4.7c0 3.1-.8 5.9-2.5 8.2-1.7 2.3-3.8 4.1-6.5 5.2-2.6 1.2-5.5 1.8-8.6 1.8zM802.4 128.9c-1.7-.1-3.3-.3-4.6-.7-1.4-.4-2.6-1-3.5-1.6-1-.7-1.8-1.5-2.5-2.5s-1.3-2-1.7-3.1-.8-2.3-1-3.7-.4-2.7-.5-4-.1-2.7-.1-4.4V83.2h-5.3V73h5.3V56.3h15.7V73h7.9v10.2h-7.9v28.6c0 2.9 1.7 4.4 5 4.5h1.4c.5 0 .9-.1 1.3-.1.3 0 .7-.1 1-.2s.5-.1.5-.1v12.3c-3.3.6-6.4.8-9.2.8-.7 0-1.2 0-1.8-.1zM820.7 128.3V73h15.6v9.2c3.4-6.6 7.1-9.9 11.1-9.9.6 0 1.3.1 2.2.4v13.8c-.9-.2-1.7-.3-2.6-.3-4.3.2-7.8 2.4-10.7 6.7v35.4h-15.6zM867.1 129.3c-3.9-.1-7-1.5-9.4-4.2-2.3-2.7-3.5-5.8-3.5-9.3 0-1.8.2-3.5.7-5.1s1-2.9 1.6-4.1 1.5-2.3 2.7-3.4 2.2-2 3.1-2.6c.9-.7 2.2-1.4 3.7-2.1 1.5-.8 2.8-1.3 3.7-1.7.9-.4 2.2-.9 3.8-1.5s2.7-1 3.4-1.3v-5.5c0-1.6-.2-2.8-.7-3.6s-1.3-1.3-2.6-1.3c-2.1 0-3.2 1.5-3.4 4.4l-.4 4.1-14.6-.6v-.9-.9c.5-6 2.3-10.5 5.6-13.3 3.3-2.9 8-4.3 14.1-4.3 5.4 0 9.6 1.5 12.4 4.5 2.8 3 4.3 7 4.3 12.1v25.7c0 3.5.3 8.2 1 13.9H879c-.8-4.5-1.2-7.1-1.3-7.8-.7 2.5-2 4.6-3.8 6.3-1.8 1.6-4.1 2.5-6.8 2.5zm5.6-10.8c.7 0 1.5-.3 2.3-.8s1.4-1.1 1.9-1.8v-15.1c-2.5 1.2-4.5 3-6.1 5.3s-2.4 4.5-2.4 6.6c0 1.8.4 3.2 1.2 4.3.8 1 1.9 1.5 3.1 1.5zM901.2 146.5V73h15.6v4.1c3.8-3.3 7.6-5 11.5-5h.5c4 .1 6.9 1.7 8.9 4.8 1.9 3 2.9 6.9 2.9 11.6V112c0 5.3-1 9.5-3.2 12.6-2.1 3.1-5.1 4.7-9 4.7s-7.7-1.7-11.7-5.1v22.4h-15.5v-.1zm19.8-27.4s.1 0 0 0c1.4 0 2.4-.6 3-1.7.6-1.2.9-2.7 1-4.5V87.2c0-1.7-.3-3.1-1-4.2-.6-1-1.5-1.5-2.7-1.5h-.4c-1.2.1-2.5.7-4.1 1.8v34.3c1.5 1 2.9 1.5 4.2 1.5z"/></g></g><g id="Capa_3"><circle class="st6" cx="128.5" cy="90" r="77.5"/><path class="st7" d="M101.2 50.9h56.4v78.5h-56.4z"/><g class="st8"><path class="st5" d="M129.1 129.3c-4.3 0-8-.6-11.1-1.8-3-1.2-5.5-3-7.2-5.3-1.8-2.3-3-5-3.8-8.1-.8-3-1.2-6.6-1.2-10.7V75.9c0-4.2.4-7.8 1.2-10.9.8-3.1 2-5.8 3.8-8.1s4.2-4.1 7.2-5.2c3-1.2 6.7-1.8 11.1-1.8 4.2 0 7.7.5 10.7 1.6 2.9 1.1 5.2 2.6 6.9 4.7 1.7 2.1 2.9 4.4 3.6 7 .7 2.6 1.1 5.6 1.1 9.1V79h-16.7v-7.8-2.8c0-.6-.1-1.4-.3-2.4s-.5-1.7-.8-2.2c-.4-.5-.9-.9-1.7-1.3-.7-.4-1.6-.6-2.7-.6s-2 .2-2.7.6c-.7.4-1.3.9-1.7 1.4-.4.5-.7 1.3-.9 2.2-.2.9-.4 1.8-.4 2.6s-.1 1.7-.1 2.9v36.1c0 3.1.4 5.5 1.2 7.1.8 1.6 2.3 2.5 4.6 2.5 1 0 1.9-.2 2.6-.6.7-.4 1.3-.8 1.7-1.4.4-.5.7-1.3.9-2.2.2-1 .3-1.8.4-2.5V99.7h16.7v6.7c0 2.8-.2 5.3-.7 7.5-.4 2.2-1.2 4.3-2.2 6.3s-2.4 3.6-4.1 5c-1.7 1.3-3.8 2.4-6.4 3.2-2.6.6-5.6.9-9 .9z"/></g><path class="st7" d="M291.7 56.3c1.9-.5 3.9.1 5.1 1.7 3.4.4 6.7.6 9.7.7 11.2.7 23.3.2 33.8 4.5 6.8-.6 13.7-1.2 20.5-1.8.6-.3 1.3-.5 2.2-.5h3.2c7.5-.6 15-1.3 22.4-2.3 1.8-.2 3.6-.5 5.5-.7 8.3-3.6 17.5-5.7 26.7-7.1H287V53c2 .2 4 1.3 4.7 3.3zM416.9 93.2c.3-.5.7-.9 1.3-1.2-.6 0-1.1.1-1.7.1-.7.5-1.5.8-2.4.9h-.1c0 .2-.1.4-.1.6 1-.1 2-.3 2.9-.4h.1zM371.1 72.4c4.9 1.3 9.9 2.3 15 3.1-1.2-.6-2.4-1.3-3.6-2.1-.9-.6-1.5-1.3-1.9-2.1-4.7-.1-9.4-.2-14.1-.2 1.5.4 3.1.9 4.6 1.3zM469.6 71.9c11-2 22.5-2 33.4-2.9 1.5-.1 2.6.4 3.5 1.3.3 0 .5-.1.8-.1 6.1-1.9 12.4-3.3 18.4-5 2.8-.8 4.8.6 5.7 2.6 2.4-.3 4.8-.5 7.1-.7 8.9-6.3 20.9-7.8 31.3-8.9 1.7-.2 3.5-.3 5.2-.4-2-1.7-2.8-4.8-1.1-6.8h-74.2c.6.1 1.1.2 1.7.3 5.4.9 4 8 0 9.6-6.3 2.5-13.1 4-20 4.8-.5.5-1.2.9-2 1.2-3.2.9-6.4 1.6-9.6 2.1.2.9.1 2-.2 2.9zM570.5 95.7c1.6-1.1 3.2-2.1 5-2.8-1.3 0-2.7 0-4-.1-.5.5-1.2.8-2.1 1-.8.2-1.5.3-2.3.5 1.7 2.7 1.1 6.9-2.7 7.5-.2 0-.4.1-.6.1.7 2 .3 4.3-2.3 5.4-.4.2-.8.3-1.2.5h-.2c-1.2.5-2.5.8-3.7 1.1 5.6-.2 11.3-.3 16.9-.6.3-.9.8-1.8 1.6-2.4-1.1-.4-2.2-.8-3.2-1.2-4.1-1.6-4.9-6.3-1.2-9zM277.4 91.4c1.2-1.1 2.4-2.1 3.8-3-1.6-.7-3-2.1-3.2-4.4v-.1c-1.4-.2-2.7-1-3.3-2.4-1.7-3.7-3.1-7.6-4.6-11.4-.6 6.8-1.1 13.7-1.8 20.5 2.2.5 4.4.6 6.7.3.9 0 1.7.2 2.4.5zM293.4 82.9c-.6-.7-1-1.5-1.3-2.3-.4.3-.8.6-1.2.8-.3 1.5-1.5 2.6-3 3.1 0 .1 0 .2-.1.3 1.9-.7 3.7-1.3 5.6-1.9zM302.1 72.9c-.2-1.7.5-3.4 2.3-4.3-1.6-.1-3.3-.2-4.9-.4l-2.7-.3c-.5 2.6-1.2 5.1-2 7.7 2.4-1.2 4.8-2 7.3-2.7zM882 80.1c-4-.4-8-.6-12.1-.6 1.1.2 2.3.5 3.4.7.7.2 1.4.5 1.9 1 2.3-.3 4.6-.6 6.8-1.1zM242.2 79.7l3-21c.3-2.4 1.9-3.5 3.6-3.6.8-1.1 2.2-1.8 3.6-2 .2-.7.3-1.5.5-2.2h-11.8v29c.4-.1.8-.1 1.1-.2zM644.3 122.8c-1.4.3-2.9.6-4.3.9 3.2.1 6.4.1 9.5-.3-.1-.1-.1-.2-.2-.2-1.6-.1-3.1-.3-4.7-.4h-.3zM562.6 122.2c8-.6 16.1-1.3 24.1-1.4-.8-.7-1.3-1.7-1.6-2.8-7.5.4-15 .6-22.5.9.4 1.1.4 2.2 0 3.3zM696.3 122.8c-6.3.5-12.6.9-18.9 1.2.6.7 1.1 1.4 1.5 2.1 2.6 0 5.3-.2 7.9.2.7.1 1.4.3 2 .6.3.1.5.2.7.4.2.1.4.3.6.5l.2.2.1.1.2.2c1.1.1 2 .5 2.8 1.2h3.5c-.4-2.1-.6-4.5-.6-6.7zM667 127.8c-.1-.2-.3-.3-.4-.5-.6-.9-.8-2.1-.6-3.2h-1c.3 2-.8 4.2-2.5 5.2l-.1.1h4.7c-.1-.5-.1-1-.1-1.6z"/><path class="st7" d="M637.9 50.9c.4.5.6 1.1.8 1.7 4.6-.2 9.2-.2 13.8-.4 1.5-.1 3.1-.2 4.6-.2 4.3-.2 5.7 4.1 4.3 7.1 2.3.3 4.7.7 7 1.1 1.7.3 2.8 1.5 3.3 2.9 7.5.6 14.9 1.4 22.1 2.4 11.1-.9 22.4-.5 33.3-.5 2 0 3.4 1.1 4.2 2.5 5.6-.5 11.2-1.1 16.8-1.5 1.4-.1 2.5.3 3.3.9 13.5-.2 27-.8 40.3-2.4.3-.3.5-.6.9-.8 5-3.8 11.6-5.5 18.1-5.7.8-.3 1.6-.2 2.4 0 3.2.1 6.4.5 9.4 1.2 4.2 1 4.6 6.6 1.6 8.9 1.4.1 2.8.1 4.2.1 14.4-3.5 30.4-2.6 44.6-5 4.4-.7 7 3.6 6.1 6.7 7.9.5 15.8 1.5 23.6 3.3 4.4 1 4.6 6.9 1.2 9.1-9.9 6.5-22.5 8.7-34.7 9.4.1.8 0 1.5-.2 2.2h7.4c3.1 0 4.7 2.3 4.8 4.7 3.5.4 7 .8 10.5 1.5 4.8.9 4.7 8.6 0 9.6-8.1 1.8-18.3 3.5-26.5.5-.3.1-.6.3-.9.3v.6c6.7.5 13.4 1.1 20.1 1.8 6.5.7 6.4 9.3 0 10-7.2.8-14.4 1.4-21.6 1.8 1.3 1.2 2 2.8 1.6 4.6h83V50.9H637.9zM748.7 129.3c-3-.2-6 0-9-.1 0 .1.1.1.1.2h10.6c-.6 0-1.2-.1-1.7-.1zM247 121.5c-2.3-1.4-4.4-3.3-5.8-5.6v13.5h5.6c-2.2-1.7-2.1-5.7.2-7.9zM474.8 129.4h21.9c-.3-.1-.5-.3-.7-.5-5.4.6-11.1.2-15.8-.3-1.7-.2-3.5-.4-5.2-.6-.1.5-.1.9-.2 1.4zM427.3 122.4c-1.7-.1-3.5-.2-5.2-.4.2 1.3-.2 2.8-1.5 4-1.6 1.5-3.5 2.6-5.6 3.3h10.7c-1.1-2-.5-5.2 1.6-6.9zM401.4 124.5c1.8-1.5 3.8-2.5 6.1-3.2-7-.3-13.9-.5-20.9-.7 4.5 2.5 9.1 4.5 14.8 3.9zM381.5 129.4c-1.8-1.1-3.6-2.2-5.4-3.1-1.8-.9-2.5-2.4-2.5-3.9-.4.1-.8.1-1.3.2 1.9 1.9 2.3 5.1.6 6.9h8.6zM336.3 126.3c-3.5.2-6.9.4-10.3.5.3.5.5 1.1.6 1.6h.2c1.2 0 2.2.4 3 1h8.1c-.9-.9-1.4-2-1.6-3.1zM242.9 90.6c-.5-.2-1.1-.3-1.7-.5v7.2c.9-.1 1.8-.3 2.7-.4-1.7-1.4-2.1-4.1-1-6.3z"/><g class="st8"><path class="st6" d="M399.6 124.6c.7-1.1 1.3-2.3 1.8-3.6-5-.2-9.9-.4-14.9-.5 4.1 2.3 8.2 4.2 13.1 4.1zM407.4 121.3c-1.9-.1-3.8-.2-5.7-.2.1.6.2 1.5.5 2.8 1.5-1.2 3.3-2 5.2-2.6zM685.8 123.5c-2.8.2-5.6.3-8.4.4.6.7 1.1 1.4 1.6 2.1 2.6 0 5.2-.2 7.8.2-.2-.9-.5-1.9-1-2.7z"/></g></g><path class="st6" d="M303.2 52h17.2l27.7 57.1-1.2 1.3V52h13.4v74.5H343l-27.6-56.2 1.2-1.3v57.6h-13.4V52zM384.7 124.6c-3.4-1.8-6-4.5-7.8-7.9-1.8-3.5-2.7-7.6-2.7-12.5v-8.7c0-4.8.9-8.9 2.7-12.4 1.8-3.4 4.4-6 7.8-7.8 3.4-1.8 7.6-2.7 12.4-2.7 4.9 0 9 .9 12.4 2.7 3.4 1.8 6 4.4 7.8 7.8 1.8 3.4 2.7 7.6 2.7 12.4v8.8c0 4.9-.9 9-2.7 12.4-1.8 3.4-4.4 6.1-7.8 7.9-3.4 1.8-7.6 2.7-12.4 2.7-4.8 0-9-.9-12.4-2.7zm19-13.3c1.6-1.7 2.4-4 2.4-7v-8.8c0-3-.8-5.3-2.4-6.9-1.6-1.6-3.8-2.5-6.6-2.5s-5 .8-6.5 2.5c-1.6 1.6-2.3 3.9-2.3 6.9v8.8c0 3 .8 5.3 2.3 7 1.5 1.7 3.7 2.5 6.6 2.5 2.7 0 4.9-.8 6.5-2.5zM427.3 73.4h13.2l17.9 46.2-8.9 11.3-22.2-57.5zm49.1 0L452.8 139c-.9 2.4-2 4.3-3.3 5.8-1.3 1.4-2.9 2.4-4.9 3.1-1.9.6-4.3.9-7.2.9h-3.1v-13.6h3.1c1.5 0 2.8-.3 3.8-1s1.8-1.8 2.3-3.3l19.7-57.5h13.2zM484.6 52h14v74.5h-14V52zm6.5 32.1h23.8c1.7 0 3.2-.4 4.4-1.2 1.3-.8 2.3-1.9 3-3.3.7-1.4 1.1-3 1.1-4.8 0-1.8-.4-3.5-1.1-4.9-.7-1.4-1.7-2.5-3-3.3-1.3-.8-2.8-1.2-4.5-1.2H491V52h23.5c4.6 0 8.7.9 12.3 2.8 3.5 1.9 6.3 4.6 8.2 8 1.9 3.5 2.9 7.5 2.9 12s-1 8.5-2.9 12c-1.9 3.4-4.7 6.1-8.2 8-3.5 1.9-7.6 2.8-12.3 2.8H491V84.1zM550.7 123.3c-2.8-2.7-4.2-6.8-4.2-12.4 0-5.3 1.6-9.2 4.7-11.8 3.2-2.6 7.9-3.9 14.2-3.9h13.3l.7 10.7h-14c-2.1 0-3.7.4-4.8 1.3-1.1.8-1.6 2.1-1.6 3.8 0 1.7.7 3 2 3.9 1.3.8 3.3 1.3 6 1.3 3.8 0 6.6-.4 8.4-1.3 1.8-.9 2.7-2.2 2.7-4l1.1 7.7c-.2 1.9-1.1 3.5-2.6 4.9-1.6 1.3-3.5 2.3-5.8 3-2.3.7-4.8 1-7.4 1-5.7-.2-9.9-1.5-12.7-4.2zm27.6-30.5c0-2.5-.8-4.4-2.5-5.7-1.6-1.3-4-2-7-2-2 0-3.9.3-5.9 1s-3.7 1.6-5.2 2.7l-8.7-8.6c2.1-2.4 4.9-4.3 8.4-5.7 3.5-1.3 7.3-2 11.6-2 4.6 0 8.6.8 11.9 2.3 3.3 1.6 5.8 3.8 7.5 6.8 1.7 3 2.6 6.5 2.6 10.7v34.2h-12.8V92.8zM604.9 73.4H620v53.2h-15.1V73.4zm27.4 13.2c-1-.3-2.1-.5-3.4-.5-2.8 0-5 .9-6.6 2.7-1.6 1.8-2.3 4.4-2.3 7.6l-1.1-13.8c1.5-3.2 3.4-5.6 5.7-7.4 2.3-1.8 4.9-2.6 7.7-2.6 2.2 0 4.2.4 6 1.1 1.8.7 3.4 1.7 4.7 3.1l-8.2 11.4c-.7-.7-1.5-1.2-2.5-1.6zM649.7 52h14v74.5h-14V52zm6.5 55.4l24.8-34h14.9l-37.8 49.5-1.9-15.5zm12.7-8.3l11.6-7 18.1 34.5h-16.3l-13.4-27.5z"/><ellipse class="st6" cx="128.5" cy="90" rx="46.6" ry="47.5"/><g><path class="st5" d="M103.9 65.4c.2-.9.5-1.8.8-2.8.3-1 .7-1.9 1.2-2.8.5-.8 1.2-1.5 2-2.1.8-.6 1.9-.8 3.1-.8 1.2 0 2.3.3 3.2 1 .9.7 1.8 1.3 2.5 2 .9.6 1.7 1.8 2.6 3.5.8 1.8 1.7 4 2.5 6.6.9 2.6 1.8 5.5 2.8 8.8 1 3.3 2.1 6.7 3.3 10.3 1.2 3.6 2.6 7.3 4.1 11 1.5 3.7 3.2 7.4 5.1 10.9.3.5.7 1.2 1.1 1.9.4.7.8 1.4 1.3 2.1.4.6.8 1.2 1.2 1.6.4.4.6.7.8.7.1 0 .2-.3.4-.8.1-.5.3-1.1.5-1.8s.4-1.5.5-2.2c.2-.8.4-1.4.5-1.8.6-1.6 1.4-3.4 2.1-5.4.8-2 1.6-4.5 2.6-7.4.9-2.9 2-6.3 3.1-10.3s2.4-8.7 3.7-14.1c.3-1.3.7-2.8 1.1-4.5.4-1.7.8-3.4 1.1-5.2.4-1.8.7-3.5.9-5.2.3-1.7.5-3.1.6-4.4 0-.2 0-.6.1-1.1 0-.5.1-1.1.2-1.7.1-.6.2-1.3.3-2 .1-.7.3-1.3.5-1.9.2-.6.5-1.1.8-1.4.3-.4.8-.6 1.2-.6.5 0 1.1.1 1.8.2s1.3.3 1.9.6c.6.9 1.2 2 1.8 3.2.5 1.2.8 2.9.8 5.1 0 1.3-.1 2.9-.4 4.8-.3 1.9-.6 3.9-1.1 6-.4 2.1-.9 4.3-1.4 6.6-.5 2.3-1.1 4.4-1.6 6.5-.5 2.1-1.1 4-1.6 5.7-.5 1.7-.9 3.2-1.3 4.3-.6 2-1.3 4-1.9 6.1-.7 2.1-1.4 4.3-2.2 6.6-.8 2.3-1.7 4.8-2.6 7.3-.9 2.6-2 5.3-3.2 8.3-.5 1.3-1.1 2.7-1.8 4-.7 1.3-1.4 2.5-2.3 3.6-.9 1.1-1.8 1.9-2.9 2.6-1.1.7-2.3 1-3.6 1-.8 0-1.6-.1-2.4-.3-.8-.2-1.5-.7-2.1-1.4-2.8-3.2-5.3-6.9-7.5-11s-4.1-8.4-5.9-12.9c-1.7-4.5-3.3-9-4.6-13.6-1.3-4.6-2.5-9-3.6-13.2l-.3-1.2c-.1-.5-.3-1-.4-1.5-.1-.5-.2-.9-.4-1.4-.1-.4-.3-.7-.4-1-.2-.3-.3-.4-.5-.4s-.5.4-.8 1.1c-.3.8-.6 1.6-.9 2.5-.3.9-.6 1.9-.8 2.7-.3.9-.4 1.5-.5 1.7-.2.9-.6 2.2-1.1 3.8-.5 1.7-1 3.5-1.6 5.6-.6 2.1-1.2 4.3-1.9 6.6s-1.4 4.6-2 6.7c-.6 2.2-1.3 4.2-1.8 6-.6 1.8-1.1 3.3-1.4 4.5-.3.9-.7 2-1.1 3.4-.4 1.4-.9 2.8-1.3 4.2-.4 1.4-.9 2.7-1.2 3.9-.4 1.2-.6 1.9-.7 2.3-.4 1.3-1 2.3-1.8 2.9-.8.7-1.6 1-2.4 1-.5 0-1-.2-1.5-.5-.5-.4-1-.8-1.4-1.3-.4-.5-.7-1.1-1-1.7-.3-.6-.4-1.1-.4-1.6 0-.3.1-.7.3-1.3.2-.6.4-1.6.8-3l1.3-5.3 15.1-48.9z"/></g></svg>
